#!OML:ASF F:\VICON\USERDATA\INSTALL\Justin_Nancy\Justin_Nancy.ASF
:FULLY-SPECIFIED
:DEGREES
79
root 10.7088 16.9954 -8.85326 0.109939 -1.21304 12.1396
lowerback 5.77713 -1.91861 -10.6645
upperback -0.511456 -3.29035 0.384318
thorax -3.17019 -1.44692 6.65651
lowerneck -16.5295 -4.54408 -10.9826
upperneck 21.9108 -4.56958 4.8217
head 10.0981 -2.48671 2.90101
rclavicle -2.25124e-014 1.74931e-014
rhumerus -44.5015 -23.7752 -69.3431
rradius 25.552
rwrist 10.7204
rhand -15.8613 11.2118
rfingers 7.12502
rthumb 10.334 -18.5143
lclavicle -2.25124e-014 1.74931e-014
lhumerus -21.2607 4.61754 79.7522
lradius 33.2095
lwrist -2.72275
lhand -20.2709 25.9708
lfingers 7.12502
lthumb 6.07827 55.8636
rfemur -34.2895 -3.79457 14.4407
rtibia 21.4982
rfoot 0.91328 -16.361
rtoes -1.14724
lfemur 8.34786 0.663117 -27.7186
ltibia 18.3209
lfoot -15.2852 8.78589
ltoes -20.0437
80
root 10.6374 16.9796 -8.62968 0.00608919 -1.23621 12.5756
lowerback 5.80046 -1.94769 -10.9337
upperback -0.467796 -3.35048 0.313765
thorax -3.11586 -1.47751 6.73645
lowerneck -16.5002 -4.61377 -11.263
upperneck 21.8808 -4.5933 4.82305
head 10.0933 -2.52077 2.94396
rclavicle -9.93923e-016 -1.59028e-014
rhumerus -44.7098 -23.9755 -69.0401
rradius 25.2071
rwrist 11.4123
rhand -15.4574 11.3888
rfingers 7.12502
rthumb 10.7235 -18.3175
lclavicle -9.93923e-016 -1.59028e-014
lhumerus -20.8146 4.94478 79.5486
lradius 33.7208
lwrist -2.25421
lhand -19.7853 26.5121
lfingers 7.12502
lthumb 6.54704 56.3909
rfemur -33.5731 -2.68078 13.5002
rtibia 18.5799
rfoot 2.16856 -18.6266
rtoes -2.18008
lfemur 9.56709 0.517353 -27.7722
ltibia 17.76
lfoot -14.99 8.00731
ltoes -19.6533
81
root 10.5662 16.9568 -8.41001 0.0446567 -1.45492 12.7769
lowerback 5.77393 -1.9588 -10.9239
upperback -0.561047 -3.36914 0.260379
thorax -3.19982 -1.47863 6.67694
lowerneck -16.2106 -4.58111 -11.2547
upperneck 21.7617 -4.54059 4.64977
head 9.98806 -2.51732 2.89031
rclavicle 1.25731e-014 1.11319e-014
rhumerus -45.0155 -23.6902 -69.1025
rradius 25.045
rwrist 11.5539
rhand -15.2422 11.8005
rfingers 7.12502
rthumb 10.9311 -17.8949
lclavicle 1.25731e-014 1.11319e-014
lhumerus -20.5548 5.16754 79.2337
lradius 34.2177
lwrist -1.91586
lhand -19.0383 29.184
lfingers 7.12502
lthumb 7.26821 59.0392
rfemur -32.8824 -1.95439 13.1714
rtibia 15.6712
rfoot 3.25771 -20.482
rtoes -1.93975
lfemur 10.2579 0.397502 -27.5886
ltibia 17.9541
lfoot -14.5214 7.41826
ltoes -17.5376
82
root 10.4935 16.929 -8.1882 0.0432269 -1.81734 12.9302
lowerback 5.75823 -1.86684 -10.8203
upperback -0.556616 -3.24003 0.183513
thorax -3.22101 -1.41582 6.52826
lowerneck -16.5767 -4.52402 -11.2794
upperneck 22.0353 -4.40003 4.5965
head 10.1423 -2.46132 2.89371
rclavicle -3.07619e-014 3.18055e-015
rhumerus -45.1671 -23.4635 -69.3438
rradius 25.0391
rwrist 11.5244
rhand -15.2021 11.527
rfingers 7.12502
rthumb 10.9698 -18.1664
lclavicle -3.07619e-014 3.18055e-015
lhumerus -20.039 5.46779 79.0203
lradius 34.5586
lwrist -1.94429
lhand -18.6607 31.7873
lfingers 7.12502
lthumb 7.63269 61.6295
rfemur -32.3222 -2.06796 13.5137
rtibia 13.4451
rfoot 4.01494 -21.0542
rtoes -2.02672
lfemur 10.6625 0.445367 -27.3363
ltibia 18.4862
lfoot -14.0084 6.64114
ltoes -18.7841
83
root 10.4158 16.9067 -7.96407 -0.0832679 -2.03517 13.1088
lowerback 5.83873 -1.80895 -10.7477
upperback -0.544234 -3.16973 0.112111
thorax -3.27445 -1.38012 6.41111
lowerneck -16.9337 -4.5913 -11.528
upperneck 22.4535 -4.39823 4.63347
head 10.3698 -2.48151 2.94829
rclavicle -1.24737e-014 -1.74931e-014
rhumerus -45.4824 -23.2475 -69.4203
rradius 25.1696
rwrist 11.6663
rhand -14.9677 11.1023
rfingers 7.12502
rthumb 11.1959 -18.579
lclavicle -1.24737e-014 -1.74931e-014
lhumerus -19.55 5.6063 78.8719
lradius 34.7835
lwrist -1.76135
lhand -19.5428 31.7023
lfingers 7.12502
lthumb 6.7812 61.5737
rfemur -31.7465 -2.85449 14.207
rtibia 12.0217
rfoot 4.69721 -20.5306
rtoes -3.49572
lfemur 10.8137 0.415892 -27.0369
ltibia 19.4727
lfoot -15.4814 6.77065
ltoes -30.3561
